<?xml version="1.0" encoding="UTF-8" standalone="no"?>
<svg
   xmlns:dc="http://purl.org/dc/elements/1.1/"
   xmlns:cc="http://creativecommons.org/ns#"
   xmlns:rdf="http://www.w3.org/1999/02/22-rdf-syntax-ns#"
   xmlns:svg="http://www.w3.org/2000/svg"
   xmlns="http://www.w3.org/2000/svg"
   xmlns:sodipodi="http://sodipodi.sourceforge.net/DTD/sodipodi-0.dtd"
   xmlns:inkscape="http://www.inkscape.org/namespaces/inkscape"
   viewBox="0 0 36 36"
   width="36"
   height="36"
   id="svg2"
   version="1.1"
   inkscape:version="0.91 r13725"
   sodipodi:docname="illustrator.svg">
  <metadata
     id="metadata14">
    <rdf:RDF>
      <cc:Work
         rdf:about="">
        <dc:format>image/svg+xml</dc:format>
        <dc:type
           rdf:resource="http://purl.org/dc/dcmitype/StillImage" />
        <dc:title></dc:title>
      </cc:Work>
    </rdf:RDF>
  </metadata>
  <defs
     id="defs12" />
  <sodipodi:namedview
     pagecolor="#ffffff"
     bordercolor="#666666"
     borderopacity="1"
     objecttolerance="10"
     gridtolerance="10"
     guidetolerance="10"
     inkscape:pageopacity="0"
     inkscape:pageshadow="2"
     inkscape:window-width="687"
     inkscape:window-height="480"
     id="namedview10"
     showgrid="false"
     fit-margin-top="0"
     fit-margin-left="0"
     fit-margin-right="0"
     fit-margin-bottom="0"
     inkscape:zoom="4.9166667"
     inkscape:cx="18"
     inkscape:cy="18"
     inkscape:window-x="0"
     inkscape:window-y="0"
     inkscape:window-maximized="0"
     inkscape:current-layer="svg2" />
  <path
     d="m 36,31 c 0,2.762 -2.238,5 -5,5 L 5,36 C 2.239,36 0,33.762 0,31 L 0,5 C 0,2.238 2.239,0 5,0 l 26,0 c 2.762,0 5,2.238 5,5 l 0,26 z"
     id="path4"
     inkscape:connector-curvature="0"
     style="fill:#eb7900" />
  <path
     d="m 18.036,21.332 -5.389,0 -1.101,3.404 c -0.029,0.13 -0.145,0.217 -0.275,0.203 l -2.724,0 c -0.159,0 -0.203,-0.087 -0.159,-0.261 l 4.665,-13.43 c 0.043,-0.145 0.087,-0.304 0.145,-0.478 0.058,-0.304 0.087,-0.623 0.087,-0.942 -0.014,-0.072 0.043,-0.145 0.116,-0.159 l 0.043,0 3.709,0 c 0.116,0 0.174,0.043 0.188,0.116 l 5.288,14.922 c 0.043,0.159 0,0.232 -0.145,0.232 l -3.028,0 c -0.101,0.014 -0.203,-0.058 -0.232,-0.159 l -1.188,-3.448 0,0 z m -4.549,-2.941 3.68,0 C 17.08,18.087 16.964,17.725 16.834,17.348 16.704,16.957 16.573,16.537 16.443,16.102 16.298,15.653 16.168,15.218 16.023,14.769 15.878,14.32 15.748,13.9 15.632,13.48 15.516,13.074 15.415,12.698 15.313,12.35 l -0.029,0 c -0.13,0.623 -0.29,1.246 -0.493,1.869 -0.217,0.695 -0.435,1.42 -0.666,2.144 -0.203,0.739 -0.421,1.42 -0.638,2.028 z"
     id="path6"
     inkscape:connector-curvature="0"
     style="fill:#fadb00" />
  <path
     d="m 25.859,12.205 c -0.478,0.014 -0.942,-0.174 -1.289,-0.507 -0.333,-0.362 -0.507,-0.84 -0.493,-1.333 -0.014,-0.493 0.174,-0.956 0.522,-1.289 0.348,-0.333 0.811,-0.507 1.289,-0.507 0.565,0 1,0.174 1.318,0.507 0.319,0.348 0.493,0.811 0.478,1.289 0.014,0.493 -0.159,0.971 -0.507,1.333 -0.333,0.348 -0.825,0.536 -1.318,0.507 l 0,0 z m -1.623,12.575 0,-11.155 c 0,-0.145 0.058,-0.203 0.188,-0.203 l 2.868,0 c 0.13,0 0.188,0.072 0.188,0.203 l 0,11.155 c 0,0.159 -0.058,0.232 -0.188,0.232 l -2.839,0 c -0.144,0 -0.217,-0.087 -0.217,-0.232 z"
     id="path8"
     inkscape:connector-curvature="0"
     style="fill:#fadb00" />
</svg>
