<svg xmlns="http://www.w3.org/2000/svg"  viewBox="0 0 48 48" width="48px" height="48px"><path fill="#eb7900" d="M42,37c0,2.762-2.238,5-5,5H11c-2.761,0-5-2.238-5-5V11c0-2.762,2.239-5,5-5h26c2.762,0,5,2.238,5,5 V37z"/><path fill="#fadb00" d="M24.036,27.332h-5.389l-1.101,3.404c-0.029,0.13-0.145,0.217-0.275,0.203h-2.724 c-0.159,0-0.203-0.087-0.159-0.261l4.665-13.43c0.043-0.145,0.087-0.304,0.145-0.478c0.058-0.304,0.087-0.623,0.087-0.942 c-0.014-0.072,0.043-0.145,0.116-0.159h0.043h3.709c0.116,0,0.174,0.043,0.188,0.116l5.288,14.922 c0.043,0.159,0,0.232-0.145,0.232h-3.028c-0.101,0.014-0.203-0.058-0.232-0.159L24.036,27.332L24.036,27.332z M19.487,24.391 h3.68c-0.087-0.304-0.203-0.666-0.333-1.043c-0.13-0.391-0.261-0.811-0.391-1.246c-0.145-0.449-0.275-0.884-0.42-1.333 c-0.145-0.449-0.275-0.869-0.391-1.289c-0.116-0.406-0.217-0.782-0.319-1.13h-0.029c-0.13,0.623-0.29,1.246-0.493,1.869 c-0.217,0.695-0.435,1.42-0.666,2.144C19.922,23.102,19.704,23.783,19.487,24.391z"/><path fill="#fadb00" d="M31.859,18.205c-0.478,0.014-0.942-0.174-1.289-0.507c-0.333-0.362-0.507-0.84-0.493-1.333 c-0.014-0.493,0.174-0.956,0.522-1.289c0.348-0.333,0.811-0.507,1.289-0.507c0.565,0,1,0.174,1.318,0.507 c0.319,0.348,0.493,0.811,0.478,1.289c0.014,0.493-0.159,0.971-0.507,1.333C32.844,18.046,32.352,18.234,31.859,18.205 L31.859,18.205z M30.236,30.78V19.625c0-0.145,0.058-0.203,0.188-0.203h2.868c0.13,0,0.188,0.072,0.188,0.203V30.78 c0,0.159-0.058,0.232-0.188,0.232h-2.839C30.309,31.012,30.236,30.925,30.236,30.78z"/></svg>