<svg xmlns="http://www.w3.org/2000/svg"  viewBox="0 0 48 48" width="48px" height="48px"><path fill="#2100c4" d="M42,37c0,2.762-2.238,5-5,5H11c-2.761,0-5-2.238-5-5V11c0-2.762,2.239-5,5-5h26c2.762,0,5,2.238,5,5 V37z"/><path fill="#3dd9eb" d="M14.1,31.065V15.63c0-0.105,0.045-0.165,0.15-0.165c0.255,0,0.495,0,0.84-0.015 c0.36-0.015,0.735-0.015,1.14-0.03c0.405-0.015,0.84-0.015,1.305-0.03C18,15.375,18.45,15.375,18.9,15.375 c1.23,0,2.25,0.15,3.09,0.465c0.75,0.255,1.44,0.675,2.01,1.23c0.48,0.48,0.855,1.065,1.095,1.71 c0.225,0.63,0.345,1.275,0.345,1.95c0,1.29-0.3,2.355-0.9,3.195c-0.6,0.84-1.44,1.47-2.415,1.83 c-1.02,0.375-2.145,0.51-3.375,0.51c-0.36,0-0.6,0-0.75-0.015c-0.15-0.015-0.36-0.015-0.645-0.015v4.815 c0.015,0.105-0.06,0.195-0.165,0.21c-0.015,0-0.03,0-0.06,0h-2.85C14.16,31.26,14.1,31.2,14.1,31.065z M17.37,18.36v5.04 c0.21,0.015,0.405,0.03,0.585,0.03h0.795c0.585,0,1.17-0.09,1.725-0.27c0.48-0.135,0.9-0.42,1.23-0.795 c0.315-0.375,0.465-0.885,0.465-1.545c0.015-0.465-0.105-0.93-0.345-1.335c-0.255-0.39-0.615-0.69-1.05-0.855 c-0.555-0.225-1.155-0.315-1.77-0.3c-0.39,0-0.735,0-1.02,0.015C17.685,18.33,17.475,18.345,17.37,18.36L17.37,18.36z"/><path fill="#3dd9eb" d="M34.8,22.485c-0.45-0.24-0.93-0.405-1.44-0.51c-0.555-0.12-1.11-0.195-1.68-0.195 c-0.3-0.015-0.615,0.03-0.9,0.105c-0.195,0.045-0.36,0.15-0.465,0.3c-0.075,0.12-0.12,0.27-0.12,0.405 c0,0.135,0.06,0.27,0.15,0.39c0.135,0.165,0.315,0.3,0.51,0.405c0.345,0.18,0.705,0.345,1.065,0.495 c0.81,0.27,1.59,0.645,2.31,1.095c0.495,0.315,0.9,0.735,1.185,1.245c0.24,0.48,0.36,1.005,0.345,1.545 c0.015,0.705-0.195,1.41-0.585,1.995c-0.42,0.6-1.005,1.065-1.68,1.335c-0.735,0.315-1.635,0.48-2.715,0.48 c-0.69,0-1.365-0.06-2.04-0.195c-0.525-0.09-1.05-0.255-1.53-0.48c-0.105-0.06-0.18-0.165-0.165-0.285v-2.61 c0-0.045,0.015-0.105,0.06-0.135c0.045-0.03,0.09-0.015,0.135,0.015c0.585,0.345,1.2,0.585,1.86,0.735 c0.57,0.15,1.17,0.225,1.77,0.225c0.57,0,0.975-0.075,1.245-0.21c0.24-0.105,0.405-0.36,0.405-0.63c0-0.21-0.12-0.405-0.36-0.6 c-0.24-0.195-0.735-0.42-1.47-0.705c-0.765-0.27-1.47-0.63-2.13-1.08c-0.465-0.33-0.855-0.765-1.14-1.275 c-0.24-0.48-0.36-1.005-0.345-1.53c0-0.645,0.18-1.26,0.51-1.815c0.375-0.6,0.93-1.08,1.575-1.38 c0.705-0.36,1.59-0.525,2.655-0.525c0.615,0,1.245,0.045,1.86,0.135c0.45,0.06,0.885,0.18,1.29,0.345 c0.06,0.015,0.12,0.075,0.15,0.135c0.015,0.06,0.03,0.12,0.03,0.18v2.445c0,0.06-0.03,0.12-0.075,0.15 C34.935,22.515,34.86,22.515,34.8,22.485z"/></svg>