<?xml version="1.0" encoding="UTF-8" standalone="no"?>
<svg
   xmlns:dc="http://purl.org/dc/elements/1.1/"
   xmlns:cc="http://creativecommons.org/ns#"
   xmlns:rdf="http://www.w3.org/1999/02/22-rdf-syntax-ns#"
   xmlns:svg="http://www.w3.org/2000/svg"
   xmlns="http://www.w3.org/2000/svg"
   xmlns:sodipodi="http://sodipodi.sourceforge.net/DTD/sodipodi-0.dtd"
   xmlns:inkscape="http://www.inkscape.org/namespaces/inkscape"
   viewBox="0 0 36 36"
   width="36"
   height="36"
   id="svg2"
   version="1.1"
   inkscape:version="0.91 r13725"
   sodipodi:docname="photoshop.svg">
  <metadata
     id="metadata14">
    <rdf:RDF>
      <cc:Work
         rdf:about="">
        <dc:format>image/svg+xml</dc:format>
        <dc:type
           rdf:resource="http://purl.org/dc/dcmitype/StillImage" />
        <dc:title></dc:title>
      </cc:Work>
    </rdf:RDF>
  </metadata>
  <defs
     id="defs12" />
  <sodipodi:namedview
     pagecolor="#ffffff"
     bordercolor="#666666"
     borderopacity="1"
     objecttolerance="10"
     gridtolerance="10"
     guidetolerance="10"
     inkscape:pageopacity="0"
     inkscape:pageshadow="2"
     inkscape:window-width="687"
     inkscape:window-height="480"
     id="namedview10"
     showgrid="false"
     fit-margin-top="0"
     fit-margin-left="0"
     fit-margin-right="0"
     fit-margin-bottom="0"
     inkscape:zoom="4.9166667"
     inkscape:cx="18"
     inkscape:cy="18"
     inkscape:window-x="0"
     inkscape:window-y="0"
     inkscape:window-maximized="0"
     inkscape:current-layer="svg2" />
  <path
     d="m 36,31 c 0,2.762 -2.238,5 -5,5 L 5,36 C 2.239,36 0,33.762 0,31 L 0,5 C 0,2.238 2.239,0 5,0 l 26,0 c 2.762,0 5,2.238 5,5 l 0,26 z"
     id="path4"
     inkscape:connector-curvature="0"
     style="fill:#2100c4" />
  <path
     d="M 8.1,25.065 8.1,9.63 c 0,-0.105 0.045,-0.165 0.15,-0.165 0.255,0 0.495,0 0.84,-0.015 C 9.45,9.435 9.825,9.435 10.23,9.42 10.635,9.405 11.07,9.405 11.535,9.39 12,9.375 12.45,9.375 12.9,9.375 c 1.23,0 2.25,0.15 3.09,0.465 0.75,0.255 1.44,0.675 2.01,1.23 0.48,0.48 0.855,1.065 1.095,1.71 0.225,0.63 0.345,1.275 0.345,1.95 0,1.29 -0.3,2.355 -0.9,3.195 -0.6,0.84 -1.44,1.47 -2.415,1.83 -1.02,0.375 -2.145,0.51 -3.375,0.51 -0.36,0 -0.6,0 -0.75,-0.015 -0.15,-0.015 -0.36,-0.015 -0.645,-0.015 l 0,4.815 c 0.015,0.105 -0.06,0.195 -0.165,0.21 -0.015,0 -0.03,0 -0.06,0 l -2.85,0 C 8.16,25.26 8.1,25.2 8.1,25.065 Z m 3.27,-12.705 0,5.04 c 0.21,0.015 0.405,0.03 0.585,0.03 l 0.795,0 c 0.585,0 1.17,-0.09 1.725,-0.27 0.48,-0.135 0.9,-0.42 1.23,-0.795 0.315,-0.375 0.465,-0.885 0.465,-1.545 0.015,-0.465 -0.105,-0.93 -0.345,-1.335 -0.255,-0.39 -0.615,-0.69 -1.05,-0.855 -0.555,-0.225 -1.155,-0.315 -1.77,-0.3 -0.39,0 -0.735,0 -1.02,0.015 -0.3,-0.015 -0.51,0 -0.615,0.015 l 0,0 z"
     id="path6"
     inkscape:connector-curvature="0"
     style="fill:#3dd9eb" />
  <path
     d="m 28.8,16.485 c -0.45,-0.24 -0.93,-0.405 -1.44,-0.51 -0.555,-0.12 -1.11,-0.195 -1.68,-0.195 -0.3,-0.015 -0.615,0.03 -0.9,0.105 -0.195,0.045 -0.36,0.15 -0.465,0.3 -0.075,0.12 -0.12,0.27 -0.12,0.405 0,0.135 0.06,0.27 0.15,0.39 0.135,0.165 0.315,0.3 0.51,0.405 0.345,0.18 0.705,0.345 1.065,0.495 0.81,0.27 1.59,0.645 2.31,1.095 0.495,0.315 0.9,0.735 1.185,1.245 0.24,0.48 0.36,1.005 0.345,1.545 0.015,0.705 -0.195,1.41 -0.585,1.995 -0.42,0.6 -1.005,1.065 -1.68,1.335 -0.735,0.315 -1.635,0.48 -2.715,0.48 -0.69,0 -1.365,-0.06 -2.04,-0.195 -0.525,-0.09 -1.05,-0.255 -1.53,-0.48 -0.105,-0.06 -0.18,-0.165 -0.165,-0.285 l 0,-2.61 c 0,-0.045 0.015,-0.105 0.06,-0.135 0.045,-0.03 0.09,-0.015 0.135,0.015 0.585,0.345 1.2,0.585 1.86,0.735 0.57,0.15 1.17,0.225 1.77,0.225 0.57,0 0.975,-0.075 1.245,-0.21 0.24,-0.105 0.405,-0.36 0.405,-0.63 0,-0.21 -0.12,-0.405 -0.36,-0.6 -0.24,-0.195 -0.735,-0.42 -1.47,-0.705 -0.765,-0.27 -1.47,-0.63 -2.13,-1.08 -0.465,-0.33 -0.855,-0.765 -1.14,-1.275 -0.24,-0.48 -0.36,-1.005 -0.345,-1.53 0,-0.645 0.18,-1.26 0.51,-1.815 0.375,-0.6 0.93,-1.08 1.575,-1.38 0.705,-0.36 1.59,-0.525 2.655,-0.525 0.615,0 1.245,0.045 1.86,0.135 0.45,0.06 0.885,0.18 1.29,0.345 0.06,0.015 0.12,0.075 0.15,0.135 0.015,0.06 0.03,0.12 0.03,0.18 l 0,2.445 c 0,0.06 -0.03,0.12 -0.075,0.15 -0.135,0.03 -0.21,0.03 -0.27,0 z"
     id="path8"
     inkscape:connector-curvature="0"
     style="fill:#3dd9eb" />
</svg>
